<?xml version="1.0"?><svg width="250" height="218" xmlns="http://www.w3.org/2000/svg">
 <g>
  <title>Layer 1</title>
  <g id="layer1">
   <path stroke="#ffffff" d="m-71.922302,-26c0,0 -4.642899,24.75344 6.485703,35.40978c11.128601,10.65622 78.227699,68.95782 78.227699,68.95782c0,0 -3.23024,49.1894 30.873501,67.367401c-11.8466,35.416992 -18.6574,58.873993 -18.6574,58.873993c-12.6638,-1.514999 -18.13716,-0.465988 -26.9199,2.25l1.999,5.740005c6.88302,-1.761002 13.9769,-4.184006 24.5655,-1.901001c8.802198,10.089005 8.853601,24.899002 7.907198,35.643005l6.7966,0.658997c1.315403,-12.837006 0.730602,-21.009003 -4.0868,-32.113007c9.957901,5.688004 15.228203,12.210007 18.923901,23.891006l7.596199,-2.093994c-7.518997,-16.77301 -12.5891,-21.998001 -29.940699,-30.445999l19.0128,-55.461014c9.8433,5.533005 20.436096,8.410004 31.228897,10.627014l-6.485695,35.758987c-9.704506,-1.294998 -18.859604,-0.723999 -27.275303,2.48201l1.910202,5.623001c7.2631,-2.686005 17.0676,-3.835999 24.965298,-2.249008c8.461304,13.214005 8.484505,22.930008 7.640701,36.727997l6.6633,0.737c1.386002,-13.466995 1.144699,-21.5 -4.753197,-34.051987c9.897797,4.942993 15.965294,11.016998 19.945793,24.860992l6.841003,-1.552002c-4.400002,-15.664001 -12.461502,-23.43399 -28.386002,-30.716995l6.841103,-35.720001c0,0 61.120895,15.117996 106.257904,-47.006004c13.057999,-17.971397 20.417999,-29.603798 31.940002,-38.318298c24.022995,-18.168697 57.832001,-19.899197 57.792999,-19.663399l-49.531006,-2.521c0,0 -7.912994,-9.389801 -16.169006,-12.837399c-8.256989,-3.447701 -21.873001,-7.838699 -42.334991,0.3102c-20.462006,8.148899 -20.848999,12.218899 -37.003998,19.7411c-16.154007,7.521996 -27.262009,5.782501 -40.912506,4.3825c-56.585999,-5.8036 -171.958801,-93.391701 -171.958801,-93.391701l0,0zm265.601303,76.016499c6.063004,0 10.972,4.2859 10.972,9.579601c0,5.2938 -4.908997,9.579697 -10.972,9.579697c-6.063995,0 -10.973007,-4.285896 -10.973007,-9.579697c0,-5.293701 4.909012,-9.579601 10.973007,-9.579601z" id="path2830" fill="#ffffff"/>
  </g>
 </g>

</svg>